# xmcd
#
# Track frame offsets: 
#        150
#        9810
#        21785
#        33887
#        47205
#        59881
#        73441
#        83478
#        95437
#        107721
#        120763
#        133455
#        143045
#        155979
#        169019
#        180891
#        192176
#        207689
#        219364
#        228350
#
# Disc length: 3225 seconds
#
# Revision: 1
# Processed by: cddbd v1.5.2PL0 Copyright (c) Steve Scherf et al.
# Submitted via: ExactAudioCopy v0.95b3
#
DISCID=180c9714
DTITLE=Various Artist - Country and Western [disc 8]
DYEAR=2005
DGENRE=Country
TTITLE0=Tex Williams - Drop Dead [1948]
TTITLE1=Bill Haley - Rose of My Heart [1948]
TTITLE2=Delmore Brothers - Peach Steel Boogie [1948]
TTITLE3=Jimmy Wakely - Mine All Mine [1948]
TTITLE4=Bill Haley - A Yodeller's Lullaby [1948]
TTITLE5=Tommy Sargent - Steel Guitar Boogie [1948]
TTITLE6=Bill Haley - Rovin' Eyes [1948]
TTITLE7=Jack Rivers - Dear Oakie [1948]
TTITLE8=Rip Ramsey - Wanderers Swing [1948]
TTITLE9=Bill Haley - Yodel Your Blues Away [1948]
TTITLE10=Bill Haley - Candy and Women [1949]
TTITLE11=Tennessee Ernie Ford - Anticipation Blues [1949]
TTITLE12=Johnnie Lee Wills - Rag Mop [1949]
TTITLE13=Bill Haley - Cotton Haired Gal [1949]
TTITLE14=Tennessee Ernie Ford - Smokey Mountain Boogie [1949]
TTITLE15=Tommy Scott - Gonna Paint the Town Red [1949]
TTITLE16=Bill Haley - My Mom Heard Me Crying [1949]
TTITLE17=Tommy Duncan - Chattanooga Shoe Shine Boy [1949]
TTITLE18=Tommy Mooney - Bingo Boogie [1949]
TTITLE19=Tennessee Ernie Ford - Mule Train [1949]
EXTD=10CD: Membran/Documents 223001-321 (2005-07-25), EAN 401122223001
EXTD=0.
EXTT0=(King/Stewart)
EXTT1=(Haley/Howard)
EXTT2=(Delmore/Delmore)
EXTT3=(White)
EXTT4=(Stuart)
EXTT5=(Sargent)
EXTT6=(Menaker)
EXTT7=(trad.)
EXTT8=(Ramsey)
EXTT9=(Haley/Howard)
EXTT10=(Haley/Miller)
EXTT11=(Ford/Stone)
EXTT12=(Wills)
EXTT13=(Haley/Mallie)
EXTT14=(Ford/Stone)
EXTT15=(Scott)
EXTT16=(Haley)
EXTT17=(Stone/Stapp)
EXTT18=(Mooney)
EXTT19=(Lange/Heath/Glickman)
PLAYORDER=
